<mxfile host="app.diagrams.net" modified="2023-12-21T21:00:21.957Z" agent="Mozilla/5.0 (Windows NT 10.0; Win64; x64) AppleWebKit/537.36 (KHTML, like Gecko) Chrome/120.0.0.0 Safari/537.36" etag="UNUlk_DcNR09Zbe3Nb02" version="22.1.11" type="device">
  <diagram name="Page-1" id="dvWrNXE3-gBbBOj--LGO">
    <mxGraphModel dx="1050" dy="557" grid="1" gridSize="10" guides="1" tooltips="1" connect="1" arrows="1" fold="1" page="1" pageScale="1" pageWidth="850" pageHeight="1100" math="0" shadow="0">
      <root>
        <mxCell id="0" />
        <mxCell id="1" parent="0" />
        <mxCell id="PZdCBoGjca87vSYPEijU-101" value="" style="rounded=0;whiteSpace=wrap;html=1;" vertex="1" parent="1">
          <mxGeometry x="325" y="400" width="195" height="60" as="geometry" />
        </mxCell>
        <mxCell id="PZdCBoGjca87vSYPEijU-102" value="Customer" style="text;html=1;strokeColor=none;fillColor=none;align=center;verticalAlign=middle;whiteSpace=wrap;rounded=0;" vertex="1" parent="1">
          <mxGeometry x="350" y="410" width="150" height="40" as="geometry" />
        </mxCell>
        <mxCell id="PZdCBoGjca87vSYPEijU-103" value="" style="rounded=0;whiteSpace=wrap;html=1;" vertex="1" parent="1">
          <mxGeometry x="80" y="180" width="160" height="60" as="geometry" />
        </mxCell>
        <mxCell id="PZdCBoGjca87vSYPEijU-105" value="Bill" style="text;html=1;strokeColor=none;fillColor=none;align=center;verticalAlign=middle;whiteSpace=wrap;rounded=0;" vertex="1" parent="1">
          <mxGeometry x="110" y="195" width="110" height="30" as="geometry" />
        </mxCell>
        <mxCell id="PZdCBoGjca87vSYPEijU-106" value="" style="rounded=0;whiteSpace=wrap;html=1;" vertex="1" parent="1">
          <mxGeometry x="380" y="180" width="160" height="60" as="geometry" />
        </mxCell>
        <mxCell id="PZdCBoGjca87vSYPEijU-108" value="System" style="text;html=1;strokeColor=none;fillColor=none;align=center;verticalAlign=middle;whiteSpace=wrap;rounded=0;" vertex="1" parent="1">
          <mxGeometry x="410" y="195" width="100" height="30" as="geometry" />
        </mxCell>
        <mxCell id="PZdCBoGjca87vSYPEijU-111" value="" style="endArrow=none;html=1;rounded=0;exitX=0.75;exitY=1;exitDx=0;exitDy=0;entryX=0.076;entryY=-0.023;entryDx=0;entryDy=0;entryPerimeter=0;" edge="1" parent="1" source="PZdCBoGjca87vSYPEijU-103" target="PZdCBoGjca87vSYPEijU-101">
          <mxGeometry width="50" height="50" relative="1" as="geometry">
            <mxPoint x="210" y="250" as="sourcePoint" />
            <mxPoint x="325" y="400" as="targetPoint" />
          </mxGeometry>
        </mxCell>
        <mxCell id="PZdCBoGjca87vSYPEijU-112" value="" style="endArrow=classic;html=1;rounded=0;" edge="1" parent="1">
          <mxGeometry width="50" height="50" relative="1" as="geometry">
            <mxPoint x="310" y="390" as="sourcePoint" />
            <mxPoint x="200" y="260" as="targetPoint" />
          </mxGeometry>
        </mxCell>
        <mxCell id="PZdCBoGjca87vSYPEijU-113" value="PayAmount" style="text;html=1;strokeColor=none;fillColor=none;align=center;verticalAlign=middle;whiteSpace=wrap;rounded=0;rotation=45;" vertex="1" parent="1">
          <mxGeometry x="155" y="310" width="170" height="40" as="geometry" />
        </mxCell>
        <mxCell id="PZdCBoGjca87vSYPEijU-115" value="" style="rounded=0;whiteSpace=wrap;html=1;" vertex="1" parent="1">
          <mxGeometry x="660" y="280" width="160" height="60" as="geometry" />
        </mxCell>
        <mxCell id="PZdCBoGjca87vSYPEijU-116" value="Room" style="text;html=1;strokeColor=none;fillColor=none;align=center;verticalAlign=middle;whiteSpace=wrap;rounded=0;" vertex="1" parent="1">
          <mxGeometry x="700" y="295" width="60" height="30" as="geometry" />
        </mxCell>
        <mxCell id="PZdCBoGjca87vSYPEijU-119" value="" style="endArrow=classic;html=1;rounded=0;" edge="1" parent="1">
          <mxGeometry width="50" height="50" relative="1" as="geometry">
            <mxPoint x="470" y="260" as="sourcePoint" />
            <mxPoint x="470" y="390" as="targetPoint" />
          </mxGeometry>
        </mxCell>
        <mxCell id="PZdCBoGjca87vSYPEijU-121" value="" style="endArrow=none;html=1;rounded=0;entryX=0.463;entryY=1.057;entryDx=0;entryDy=0;entryPerimeter=0;" edge="1" parent="1" target="PZdCBoGjca87vSYPEijU-106">
          <mxGeometry width="50" height="50" relative="1" as="geometry">
            <mxPoint x="455" y="400" as="sourcePoint" />
            <mxPoint x="505" y="350" as="targetPoint" />
          </mxGeometry>
        </mxCell>
        <mxCell id="PZdCBoGjca87vSYPEijU-123" value="1.check room availability" style="text;html=1;strokeColor=none;fillColor=none;align=center;verticalAlign=middle;whiteSpace=wrap;rounded=0;rotation=90;" vertex="1" parent="1">
          <mxGeometry x="430" y="310" width="120" height="30" as="geometry" />
        </mxCell>
        <mxCell id="PZdCBoGjca87vSYPEijU-125" value="" style="endArrow=classic;html=1;rounded=0;" edge="1" parent="1">
          <mxGeometry width="50" height="50" relative="1" as="geometry">
            <mxPoint x="440" y="390" as="sourcePoint" />
            <mxPoint x="440" y="260" as="targetPoint" />
          </mxGeometry>
        </mxCell>
        <mxCell id="PZdCBoGjca87vSYPEijU-126" value="2.room availability" style="text;html=1;strokeColor=none;fillColor=none;align=center;verticalAlign=middle;whiteSpace=wrap;rounded=0;rotation=-90;" vertex="1" parent="1">
          <mxGeometry x="375" y="310" width="100" height="30" as="geometry" />
        </mxCell>
        <mxCell id="PZdCBoGjca87vSYPEijU-127" value="" style="endArrow=classic;html=1;rounded=0;" edge="1" parent="1">
          <mxGeometry width="50" height="50" relative="1" as="geometry">
            <mxPoint x="400" y="385" as="sourcePoint" />
            <mxPoint x="400" y="260" as="targetPoint" />
          </mxGeometry>
        </mxCell>
        <mxCell id="PZdCBoGjca87vSYPEijU-128" value="5.notify customer" style="text;html=1;strokeColor=none;fillColor=none;align=center;verticalAlign=middle;whiteSpace=wrap;rounded=0;rotation=-90;" vertex="1" parent="1">
          <mxGeometry x="327.5" y="317.5" width="105" height="30" as="geometry" />
        </mxCell>
        <mxCell id="PZdCBoGjca87vSYPEijU-130" value="" style="endArrow=none;html=1;rounded=0;entryX=0;entryY=0;entryDx=0;entryDy=0;exitX=1.017;exitY=0.643;exitDx=0;exitDy=0;exitPerimeter=0;" edge="1" parent="1" source="PZdCBoGjca87vSYPEijU-106" target="PZdCBoGjca87vSYPEijU-115">
          <mxGeometry width="50" height="50" relative="1" as="geometry">
            <mxPoint x="590" y="290" as="sourcePoint" />
            <mxPoint x="640" y="240" as="targetPoint" />
          </mxGeometry>
        </mxCell>
        <mxCell id="PZdCBoGjca87vSYPEijU-133" value="" style="endArrow=classic;html=1;rounded=0;" edge="1" parent="1">
          <mxGeometry width="50" height="50" relative="1" as="geometry">
            <mxPoint x="670" y="270" as="sourcePoint" />
            <mxPoint x="560" y="210" as="targetPoint" />
          </mxGeometry>
        </mxCell>
        <mxCell id="PZdCBoGjca87vSYPEijU-134" value="4.update details" style="text;html=1;strokeColor=none;fillColor=none;align=center;verticalAlign=middle;whiteSpace=wrap;rounded=0;rotation=30;" vertex="1" parent="1">
          <mxGeometry x="570" y="210" width="110" height="30" as="geometry" />
        </mxCell>
        <mxCell id="PZdCBoGjca87vSYPEijU-135" value="" style="endArrow=none;html=1;rounded=0;entryX=0.438;entryY=1.07;entryDx=0;entryDy=0;entryPerimeter=0;" edge="1" parent="1" target="PZdCBoGjca87vSYPEijU-115">
          <mxGeometry width="50" height="50" relative="1" as="geometry">
            <mxPoint x="520" y="440" as="sourcePoint" />
            <mxPoint x="570" y="390" as="targetPoint" />
          </mxGeometry>
        </mxCell>
        <mxCell id="PZdCBoGjca87vSYPEijU-139" value="" style="endArrow=classic;html=1;rounded=0;" edge="1" parent="1">
          <mxGeometry width="50" height="50" relative="1" as="geometry">
            <mxPoint x="550" y="440" as="sourcePoint" />
            <mxPoint x="730" y="360" as="targetPoint" />
          </mxGeometry>
        </mxCell>
        <mxCell id="PZdCBoGjca87vSYPEijU-140" value="6.check-in,check-out" style="text;html=1;strokeColor=none;fillColor=none;align=center;verticalAlign=middle;whiteSpace=wrap;rounded=0;rotation=-25;" vertex="1" parent="1">
          <mxGeometry x="580" y="400" width="150" height="30" as="geometry" />
        </mxCell>
        <mxCell id="PZdCBoGjca87vSYPEijU-144" value="" style="endArrow=classic;html=1;rounded=0;" edge="1" parent="1">
          <mxGeometry width="50" height="50" relative="1" as="geometry">
            <mxPoint x="530" y="420" as="sourcePoint" />
            <mxPoint x="680" y="350" as="targetPoint" />
          </mxGeometry>
        </mxCell>
        <mxCell id="PZdCBoGjca87vSYPEijU-145" value="3.book room" style="text;html=1;strokeColor=none;fillColor=none;align=center;verticalAlign=middle;whiteSpace=wrap;rounded=0;rotation=-25;" vertex="1" parent="1">
          <mxGeometry x="531.41" y="356.34" width="140" height="30" as="geometry" />
        </mxCell>
      </root>
    </mxGraphModel>
  </diagram>
</mxfile>
